<?xml version="1.0" encoding="UTF-8" standalone="no"?>
<!DOCTYPE svg PUBLIC "-//W3C//DTD SVG 1.1//EN" "http://www.w3.org/Graphics/SVG/1.1/DTD/svg11.dtd">
<svg width="100%" height="100%" viewBox="0 0 280 280" version="1.1" xmlns="http://www.w3.org/2000/svg" xmlns:xlink="http://www.w3.org/1999/xlink" xml:space="preserve" xmlns:serif="http://www.serif.com/" style="fill-rule:evenodd;clip-rule:evenodd;stroke-linejoin:round;stroke-miterlimit:2;">
    <g transform="matrix(1,0,0,1,-4.59062,-10.3238)">
        <g transform="matrix(5.14287,0,0,4.50832,-353.43,-274.752)">
            <rect x="69.615" y="63.233" width="54.435" height="62.096" style="fill:url(#_Linear1);"/>
        </g>
        <g>
            <g transform="matrix(0.854364,0,0,0.854364,-29.1477,33.4469)">
                <g transform="matrix(0.713353,0,0,1.65248,82.9406,-238.818)">
                    <path d="M91.85,182.105C91.85,180.733 89.27,179.619 86.092,179.619C82.914,179.619 80.334,180.733 80.334,182.105L80.334,282.147C80.334,283.519 82.914,284.633 86.092,284.633C89.27,284.633 91.85,283.519 91.85,282.147L91.85,182.105Z" style="fill:rgb(76,188,242);"/>
                </g>
                <g transform="matrix(-0.211518,-0.681272,1.22888,-0.381537,-61.1855,189.995)">
                    <path d="M91.85,182.812C91.85,181.05 89.27,179.619 86.092,179.619C82.914,179.619 80.334,181.05 80.334,182.812L80.334,281.441C80.334,283.202 82.914,284.633 86.092,284.633C89.27,284.633 91.85,283.202 91.85,281.441L91.85,182.812Z" style="fill:rgb(76,188,242);"/>
                </g>
                <g transform="matrix(0.713353,0,0,0.721123,66.3568,-6.63383)">
                    <path d="M91.85,185.315C91.85,182.172 89.27,179.619 86.092,179.619C82.914,179.619 80.334,182.172 80.334,185.315L80.334,278.937C80.334,282.081 82.914,284.633 86.092,284.633C89.27,284.633 91.85,282.081 91.85,278.937L91.85,185.315Z" style="fill:rgb(76,188,242);"/>
                </g>
                <g transform="matrix(0.713353,0,0,0.721123,99.913,-6.63383)">
                    <path d="M91.85,185.315C91.85,182.172 89.27,179.619 86.092,179.619C82.914,179.619 80.334,182.172 80.334,185.315L80.334,278.937C80.334,282.081 82.914,284.633 86.092,284.633C89.27,284.633 91.85,282.081 91.85,278.937L91.85,185.315Z" style="fill:rgb(76,188,242);"/>
                </g>
                <g transform="matrix(0.713353,0,0,0.387269,116.497,88.3921)">
                    <path d="M91.85,190.226C91.85,184.372 89.27,179.619 86.092,179.619C82.914,179.619 80.334,184.372 80.334,190.226L80.334,274.027C80.334,279.88 82.914,284.633 86.092,284.633C89.27,284.633 91.85,279.88 91.85,274.027L91.85,190.226Z" style="fill:rgb(76,188,242);"/>
                </g>
                <g transform="matrix(0.713353,0,0,0.387269,49.773,88.3921)">
                    <path d="M91.85,190.226C91.85,184.372 89.27,179.619 86.092,179.619C82.914,179.619 80.334,184.372 80.334,190.226L80.334,274.027C80.334,279.88 82.914,284.633 86.092,284.633C89.27,284.633 91.85,279.88 91.85,274.027L91.85,190.226Z" style="fill:rgb(76,188,242);"/>
                </g>
                <g transform="matrix(0.713353,0,0,0.186847,33.1892,145.439)">
                    <path d="M91.85,201.602C91.85,189.47 89.27,179.619 86.092,179.619C82.914,179.619 80.334,189.47 80.334,201.602L80.334,262.65C80.334,274.783 82.914,284.633 86.092,284.633C89.27,284.633 91.85,274.783 91.85,262.65L91.85,201.602Z" style="fill:rgb(76,188,242);"/>
                </g>
                <g transform="matrix(0.713353,0,0,0.0820987,16.6055,175.253)">
                    <path d="M91.85,229.65C91.85,202.037 89.27,179.619 86.092,179.619C82.914,179.619 80.334,202.037 80.334,229.65L80.334,234.602C80.334,262.215 82.914,284.633 86.092,284.633C89.27,284.633 91.85,262.215 91.85,234.602L91.85,229.65Z" style="fill:rgb(76,188,242);"/>
                </g>
                <g transform="matrix(0.713353,0,0,0.186847,133.081,145.439)">
                    <path d="M91.85,201.602C91.85,189.47 89.27,179.619 86.092,179.619C82.914,179.619 80.334,189.47 80.334,201.602L80.334,262.65C80.334,274.783 82.914,284.633 86.092,284.633C89.27,284.633 91.85,274.783 91.85,262.65L91.85,201.602Z" style="fill:rgb(76,188,242);"/>
                </g>
                <g transform="matrix(0.713353,0,0,0.0820987,149.664,175.253)">
                    <path d="M91.85,229.65C91.85,202.037 89.27,179.619 86.092,179.619C82.914,179.619 80.334,202.037 80.334,229.65L80.334,234.602C80.334,262.215 82.914,284.633 86.092,284.633C89.27,284.633 91.85,262.215 91.85,234.602L91.85,229.65Z" style="fill:rgb(76,188,242);"/>
                </g>
                <g transform="matrix(0.971065,-0.174328,0.145879,0.812594,55.9073,140.824)">
                    <ellipse cx="51.788" cy="122.996" rx="24.914" ry="17.097" style="fill:rgb(76,188,242);"/>
                </g>
            </g>
            <g transform="matrix(0.854364,0,0,0.854364,75.8523,1.44686)">
                <g transform="matrix(0.713353,0,0,1.65248,82.9406,-238.818)">
                    <path d="M91.85,182.105C91.85,180.733 89.27,179.619 86.092,179.619C82.914,179.619 80.334,180.733 80.334,182.105L80.334,282.147C80.334,283.519 82.914,284.633 86.092,284.633C89.27,284.633 91.85,283.519 91.85,282.147L91.85,182.105Z" style="fill:rgb(76,188,242);"/>
                </g>
                <g transform="matrix(0.713353,0,0,0.721123,66.3568,-6.63383)">
                    <path d="M91.85,185.315C91.85,182.172 89.27,179.619 86.092,179.619C82.914,179.619 80.334,182.172 80.334,185.315L80.334,278.937C80.334,282.081 82.914,284.633 86.092,284.633C89.27,284.633 91.85,282.081 91.85,278.937L91.85,185.315Z" style="fill:rgb(76,188,242);"/>
                </g>
                <g transform="matrix(0.713353,0,0,0.721123,99.913,-6.63383)">
                    <path d="M91.85,185.315C91.85,182.172 89.27,179.619 86.092,179.619C82.914,179.619 80.334,182.172 80.334,185.315L80.334,278.937C80.334,282.081 82.914,284.633 86.092,284.633C89.27,284.633 91.85,282.081 91.85,278.937L91.85,185.315Z" style="fill:rgb(76,188,242);"/>
                </g>
                <g transform="matrix(0.713353,0,0,0.387269,116.497,88.3921)">
                    <path d="M91.85,190.226C91.85,184.372 89.27,179.619 86.092,179.619C82.914,179.619 80.334,184.372 80.334,190.226L80.334,274.027C80.334,279.88 82.914,284.633 86.092,284.633C89.27,284.633 91.85,279.88 91.85,274.027L91.85,190.226Z" style="fill:rgb(76,188,242);"/>
                </g>
                <g transform="matrix(0.713353,0,0,0.387269,49.773,88.3921)">
                    <path d="M91.85,190.226C91.85,184.372 89.27,179.619 86.092,179.619C82.914,179.619 80.334,184.372 80.334,190.226L80.334,274.027C80.334,279.88 82.914,284.633 86.092,284.633C89.27,284.633 91.85,279.88 91.85,274.027L91.85,190.226Z" style="fill:rgb(76,188,242);"/>
                </g>
                <g transform="matrix(0.713353,0,0,0.186847,33.1892,145.439)">
                    <path d="M91.85,201.602C91.85,189.47 89.27,179.619 86.092,179.619C82.914,179.619 80.334,189.47 80.334,201.602L80.334,262.65C80.334,274.783 82.914,284.633 86.092,284.633C89.27,284.633 91.85,274.783 91.85,262.65L91.85,201.602Z" style="fill:rgb(76,188,242);"/>
                </g>
                <g transform="matrix(0.713353,0,0,0.0820987,16.6055,175.253)">
                    <path d="M91.85,229.65C91.85,202.037 89.27,179.619 86.092,179.619C82.914,179.619 80.334,202.037 80.334,229.65L80.334,234.602C80.334,262.215 82.914,284.633 86.092,284.633C89.27,284.633 91.85,262.215 91.85,234.602L91.85,229.65Z" style="fill:rgb(76,188,242);"/>
                </g>
                <g transform="matrix(0.713353,0,0,0.186847,133.081,145.439)">
                    <path d="M91.85,201.602C91.85,189.47 89.27,179.619 86.092,179.619C82.914,179.619 80.334,189.47 80.334,201.602L80.334,262.65C80.334,274.783 82.914,284.633 86.092,284.633C89.27,284.633 91.85,274.783 91.85,262.65L91.85,201.602Z" style="fill:rgb(76,188,242);"/>
                </g>
                <g transform="matrix(0.713353,0,0,0.0820987,149.664,175.253)">
                    <path d="M91.85,229.65C91.85,202.037 89.27,179.619 86.092,179.619C82.914,179.619 80.334,202.037 80.334,229.65L80.334,234.602C80.334,262.215 82.914,284.633 86.092,284.633C89.27,284.633 91.85,262.215 91.85,234.602L91.85,229.65Z" style="fill:rgb(76,188,242);"/>
                </g>
                <g transform="matrix(0.971065,-0.174328,0.145879,0.812594,55.9073,140.824)">
                    <ellipse cx="51.788" cy="122.996" rx="24.914" ry="17.097" style="fill:rgb(76,188,242);"/>
                </g>
            </g>
        </g>
    </g>
    <defs>
        <linearGradient id="_Linear1" x1="0" y1="0" x2="1" y2="0" gradientUnits="userSpaceOnUse" gradientTransform="matrix(-1.10529e-14,67.359,-59.048,-1.26085e-14,95.75,63.2331)"><stop offset="0" style="stop-color:black;stop-opacity:1"/><stop offset="0.65" style="stop-color:rgb(11,11,11);stop-opacity:1"/><stop offset="1" style="stop-color:rgb(77,77,77);stop-opacity:1"/></linearGradient>
    </defs>
</svg>
